<svg width="34" height="34" viewBox="0 0 34 34" fill="none" xmlns="http://www.w3.org/2000/svg">
<path d="M22.3125 17C22.3125 18.409 21.7528 19.7602 20.7565 20.7565C19.7602 21.7528 18.409 22.3125 17 22.3125C15.591 22.3125 14.2398 21.7528 13.2435 20.7565C12.2472 19.7602 11.6875 18.409 11.6875 17C11.6875 16.6972 11.7194 16.4015 11.7743 16.1146H9.91667V23.1926C9.91667 23.6849 10.3151 24.0833 10.8074 24.0833H23.1944C23.4303 24.0829 23.6564 23.9888 23.8231 23.8218C23.9897 23.6548 24.0833 23.4285 24.0833 23.1926V16.1146H22.2257C22.2806 16.4015 22.3125 16.6972 22.3125 17ZM17 20.5417C17.4652 20.5415 17.9258 20.4498 18.3556 20.2717C18.7854 20.0935 19.1758 19.8325 19.5047 19.5035C19.8336 19.1744 20.0944 18.7838 20.2723 18.354C20.4503 17.9241 20.5418 17.4634 20.5417 16.9982C20.5415 16.533 20.4498 16.0724 20.2717 15.6426C20.0935 15.2129 19.8325 14.8224 19.5035 14.4935C19.1744 14.1647 18.7838 13.9038 18.354 13.7259C17.9241 13.548 17.4634 13.4564 16.9982 13.4566C16.0587 13.4568 15.1577 13.8303 14.4935 14.4948C13.8293 15.1593 13.4563 16.0605 13.4566 17C13.4568 17.9395 13.8303 18.8405 14.4948 19.5047C15.1593 20.1689 16.0605 20.5419 17 20.5417ZM21.25 13.2812H23.3732C23.5143 13.2812 23.6496 13.2253 23.7495 13.1258C23.8494 13.0262 23.9058 12.8911 23.9062 12.75V10.6268C23.9062 10.4854 23.8501 10.3498 23.7501 10.2499C23.6502 10.1499 23.5146 10.0937 23.3732 10.0937H21.25C21.1086 10.0937 20.9731 10.1499 20.8731 10.2499C20.7731 10.3498 20.717 10.4854 20.717 10.6268V12.75C20.7188 13.0422 20.9578 13.2812 21.25 13.2812ZM17 0C12.4913 0 8.1673 1.79107 4.97918 4.97918C1.79107 8.1673 0 12.4913 0 17C0 21.5087 1.79107 25.8327 4.97918 29.0208C8.1673 32.2089 12.4913 34 17 34C19.2325 34 21.4431 33.5603 23.5056 32.706C25.5682 31.8516 27.4422 30.5994 29.0208 29.0208C30.5994 27.4422 31.8516 25.5682 32.706 23.5056C33.5603 21.4431 34 19.2325 34 17C34 14.7675 33.5603 12.5569 32.706 10.4944C31.8516 8.43185 30.5994 6.55778 29.0208 4.97918C27.4422 3.40059 25.5682 2.14838 23.5056 1.29405C21.4431 0.439718 19.2325 0 17 0ZM25.8542 23.8868C25.8542 24.9688 24.9688 25.8542 23.8868 25.8542H10.1132C9.03125 25.8542 8.14583 24.9688 8.14583 23.8868V10.1132C8.14583 9.03125 9.03125 8.14583 10.1132 8.14583H23.8868C24.9688 8.14583 25.8542 9.03125 25.8542 10.1132V23.8868Z" fill="white"/>
</svg>
