<?xml version="1.0" encoding="UTF-8" standalone="no"?>
<svg
   width="20"
   height="20"
   viewBox="0 0 20 20"
   fill="none"
   version="1.1"
   id="svg874"
   sodipodi:docname="list-decoration.svg"
   inkscape:version="1.1.2 (0a00cf5339, 2022-02-04)"
   xmlns:inkscape="http://www.inkscape.org/namespaces/inkscape"
   xmlns:sodipodi="http://sodipodi.sourceforge.net/DTD/sodipodi-0.dtd"
   xmlns="http://www.w3.org/2000/svg"
   xmlns:svg="http://www.w3.org/2000/svg">
  <defs
     id="defs878" />
  <sodipodi:namedview
     id="namedview876"
     pagecolor="#ffffff"
     bordercolor="#666666"
     borderopacity="1.0"
     inkscape:pageshadow="2"
     inkscape:pageopacity="0.0"
     inkscape:pagecheckerboard="0"
     showgrid="false"
     width="20px"
     inkscape:zoom="38.619048"
     inkscape:cx="7.8717633"
     inkscape:cy="10.5"
     inkscape:window-width="1920"
     inkscape:window-height="1019"
     inkscape:window-x="0"
     inkscape:window-y="37"
     inkscape:window-maximized="1"
     inkscape:current-layer="svg874" />
  <path
     d="M 10.00004,0 C 4.486,0 0,4.486005 0,9.9999946 0,15.513995 4.486,19.999995 10.00004,19.999995 c 5.514,0 10,-4.486 10,-10.0000004 C 20.00004,4.486005 15.51404,0 10.00004,0 Z M 8.001,14.412995 4.99545,11.413895 c -0.39075,-0.3899 -0.39154,-1.0227 -0.00176,-1.4136 0.39002,-0.3911 1.02332,-0.3918 1.41424,-0.0016 l 1.59107,1.5883 4.58704,-4.58699 c 0.3904,-0.39047 1.0235,-0.39047 1.414,-10e-6 0.3904,0.39047 0.3904,1.02354 0,1.41401 z"
     fill="#2fab73"
     id="path872" />
</svg>
